<svg id="Layer_1" preserveAspectRatio="none" data-name="Layer 1" xmlns="http://www.w3.org/2000/svg" xmlns:xlink="http://www.w3.org/1999/xlink" viewBox="0 0 976.37 540.16"><defs><style>.cls-1{fill:none;}.cls-2{clip-path:url(#clip-path);}.cls-3{fill:#5e5a57;}.cls-4{clip-path:url(#clip-path-2);}.cls-5{fill:url(#linear-gradient);}.cls-6{clip-path:url(#clip-path-3);}.cls-7{fill:url(#linear-gradient-2);}</style><clipPath id="clip-path"><rect class="cls-1" width="976.37" height="540.16"/></clipPath><clipPath id="clip-path-2"><path class="cls-1" d="M0,270.09a17.3,17.3,0,0,1,17.19,17.22h0a17.31,17.31,0,0,1,17.2-17.22,17.3,17.3,0,0,1-17.19-17.23h0A17.3,17.3,0,0,1,0,270.09"/></clipPath><linearGradient id="linear-gradient" y1="808.05" x2="1" y2="808.05" gradientTransform="matrix(34.4, 0, 0, -34.4, 0, 28068.8)" gradientUnits="userSpaceOnUse"><stop offset="0" stop-color="#5d3a1c"/><stop offset="0.01" stop-color="#5d3a1c"/><stop offset="0.17" stop-color="#82522a"/><stop offset="0.25" stop-color="#925c30"/><stop offset="0.5" stop-color="#dca06e"/><stop offset="0.75" stop-color="#925c30"/><stop offset="1" stop-color="#5d3a1c"/></linearGradient><clipPath id="clip-path-3"><path class="cls-1" d="M942,270.09a17.3,17.3,0,0,1,17.19,17.22h0a17.31,17.31,0,0,1,17.2-17.22,17.3,17.3,0,0,1-17.19-17.23h0A17.3,17.3,0,0,1,942,270.09"/></clipPath><linearGradient id="linear-gradient-2" y1="808.05" x2="1" y2="808.05" gradientTransform="matrix(34.4, 0, 0, -34.4, 941.97, 28068.8)" xlink:href="#linear-gradient"/></defs><title>contact-frame</title><g class="cls-2"><path class="cls-3" d="M28.89,0s0,12-12,12V528.16s12,0,12,12H946.67s0-12,12-12V12s-12,0-12-12Z"/></g><g class="cls-4"><rect class="cls-5" y="252.86" width="34.4" height="34.45"/></g><g class="cls-6"><rect class="cls-7" x="941.96" y="252.86" width="34.4" height="34.45"/></g></svg>