<svg xmlns="http://www.w3.org/2000/svg" xmlns:xlink="http://www.w3.org/1999/xlink" version="1.1" style="enable-background:new 0 0 113.4 113.4;" xml:space="preserve" width="83" height="32"><rect id="backgroundrect" width="100%" height="100%" x="0" y="0" fill="none" stroke="none"/>
<style type="text/css">
	.st0{clip-path:url(#SVGID_2_);fill:#BC9E74;}
	.st1{fill:#BC9E74;}
	.st2{clip-path:url(#SVGID_4_);fill:#BC9E74;}
	.st3{clip-path:url(#SVGID_6_);fill:#BC9E74;}
	.st4{clip-path:url(#SVGID_8_);fill:#BC9E74;}
	.st5{clip-path:url(#SVGID_10_);fill:#BC9E74;}
	.st6{clip-path:url(#SVGID_12_);fill:#BC9E74;}
</style>




























<g class="currentLayer" style=""><title>Layer 1</title><g id="svg_1" class="">
	<defs transform="translate(-16,-41) ">
		<rect id="SVGID_1_" x="16" y="41" width="82.69999694824219" height="32"/>
	</defs>
	<clipPath id="SVGID_2_" transform="translate(-16,-41) ">
		<use xlink:href="#SVGID_1_" style="overflow:visible;" id="svg_2"/>
	</clipPath>
	<path class="st0" d="M29.6,17.200000000000003 c-0.5,6.8 -5.9,12.2 -12.7,12.7 V32 c7.9,-0.5 14.3,-6.9 14.8,-14.8 H29.6 z" id="svg_3"/>
	<path class="st0" d="M25.4,17.200000000000003 h-2.1 c-0.5,3.2 -3,5.8 -6.3,6.3 v2.1 C21.4,25.099999999999994 24.9,21.6 25.4,17.200000000000003 " id="svg_4"/>
</g><rect x="0" y="0.20000076293945312" class="st1" width="14.800000190734863" height="2.0999999046325684" id="svg_5"/><rect x="0" y="6.599998474121094" class="st1" width="14.800000190734863" height="2.0999999046325684" id="svg_6"/><g id="svg_7" class="">
	<defs transform="translate(-16,-41) ">
		<rect id="SVGID_3_" x="16" y="41" width="82.69999694824219" height="32"/>
	</defs>
	<clipPath id="SVGID_4_" transform="translate(-16,-41) ">
		<use xlink:href="#SVGID_3_" style="overflow:visible;" id="svg_8"/>
	</clipPath>
	<path class="st2" d="M0,15 h12.7 c0.5,-0.9 1.2,-1.7000000000000002 2.1,-2.1 v0 H0 V15 z" id="svg_9"/>
	<path class="st2" d="M19.1,17.200000000000003 c0,1.2 -0.9,2.1 -2.1,2.1 c-1.2,0 -2.1,-0.9 -2.1,-2.1 S15.8,15 17,15 C18.1,15 19.1,16 19.1,17.200000000000003 " id="svg_10"/>
</g><rect x="23.299999237060547" y="0.20000076293945312" class="st1" width="2.0999999046325684" height="14.800000190734863" id="svg_11"/><rect x="29.700000762939453" y="0.20000076293945312" class="st1" width="2.0999999046325684" height="14.800000190734863" id="svg_12"/><g id="svg_13" class="">
	<defs transform="translate(-16,-41) ">
		<rect id="SVGID_5_" x="16" y="41" width="82.69999694824219" height="32"/>
	</defs>
	<clipPath id="SVGID_6_" transform="translate(-16,-41) ">
		<use xlink:href="#SVGID_5_" style="overflow:visible;" id="svg_14"/>
	</clipPath>
	<path class="st3" d="M17,12.399999999999999 c0.8,0 1.5,0.2 2.1,0.5 V0.20000000000000284 H17 V12.399999999999999 z" id="svg_15"/>
	<path class="st3" d="M14.8,23.5 H4.199999999999999 v2.1 h8.5 v4.2 H2.1000000000000014 V19.299999999999997 h10.6 c-0.30000000000000004,-0.6000000000000001 -0.5,-1.4 -0.5,-2.1 H0 V32 h14.8 V23.5 z" id="svg_16"/>
</g><polygon class="st1" points="38,20.599998474121094 39.20000076293945,20.599998474121094 39.20000076293945,20.900001525878906 38.29999923706055,20.900001525878906 38.29999923706055,21.5 39.20000076293945,21.5 39.20000076293945,21.799999237060547 38.29999923706055,21.799999237060547 38.29999923706055,22.599998474121094 39.20000076293945,22.599998474121094 39.20000076293945,22.900001525878906 38,22.900001525878906 " id="svg_17"/><polygon class="st1" points="42.5,22.599998474121094 43.20000076293945,22.599998474121094 43.20000076293945,22.900001525878906 42.20000076293945,22.900001525878906 42.20000076293945,20.599998474121094 42.5,20.599998474121094 " id="svg_18"/><polygon class="st1" points="46,20.599998474121094 47.29999923706055,20.599998474121094 47.29999923706055,20.900001525878906 46.29999923706055,20.900001525878906 46.29999923706055,21.5 47.20000076293945,21.5 47.20000076293945,21.799999237060547 46.29999923706055,21.799999237060547 46.29999923706055,22.599998474121094 47.29999923706055,22.599998474121094 47.29999923706055,22.900001525878906 46,22.900001525878906 " id="svg_19"/><polygon class="st1" points="50.69999694824219,21.400001525878906 50.69999694824219,21.400001525878906 50.400001525878906,22.900001525878906 50.099998474121094,22.900001525878906 50.599998474121094,20.5 51.30000305175781,22.299999237060547 52.099998474121094,20.5 52.599998474121094,22.900001525878906 52.30000305175781,22.900001525878906 52,21.400001525878906 52,21.400001525878906 51.30000305175781,22.900001525878906 " id="svg_20"/><polygon class="st1" points="55.5,20.599998474121094 56.69999694824219,20.599998474121094 56.69999694824219,20.900001525878906 55.80000305175781,20.900001525878906 55.80000305175781,21.5 56.69999694824219,21.5 56.69999694824219,21.799999237060547 55.80000305175781,21.799999237060547 55.80000305175781,22.599998474121094 56.69999694824219,22.599998474121094 56.69999694824219,22.900001525878906 55.5,22.900001525878906 " id="svg_21"/><polygon class="st1" points="59.69999694824219,20.5 61.400001525878906,22.299999237060547 61.400001525878906,20.599998474121094 61.69999694824219,20.599998474121094 61.69999694824219,23 60,21.200000762939453 60,22.900001525878906 59.69999694824219,22.900001525878906 " id="svg_22"/><polygon class="st1" points="65.4000015258789,22.900001525878906 65.0999984741211,22.900001525878906 65.0999984741211,20.900001525878906 64.5999984741211,20.900001525878906 64.5999984741211,20.599998474121094 65.9000015258789,20.599998474121094 65.9000015258789,20.900001525878906 65.4000015258789,20.900001525878906 " id="svg_23"/><g id="svg_24" class="">
	<defs transform="translate(-16,-41) ">
		<rect id="SVGID_7_" x="16" y="41" width="82.69999694824219" height="32"/>
	</defs>
	<clipPath id="SVGID_8_" transform="translate(-16,-41) ">
		<use xlink:href="#SVGID_7_" style="overflow:visible;" id="svg_25"/>
	</clipPath>
	<path class="st4" d="M69.8,21.1 c-0.1,-0.1 -0.2,-0.2 -0.4,-0.2 c-0.2,0 -0.4,0.1 -0.4,0.30000000000000004 c0,0.2 0.2,0.30000000000000004 0.30000000000000004,0.30000000000000004 l0.2,0.1 c0.30000000000000004,0.1 0.6000000000000001,0.30000000000000004 0.6000000000000001,0.7000000000000001 c0,0.4 -0.30000000000000004,0.7000000000000001 -0.7000000000000001,0.7000000000000001 c-0.4,0 -0.7000000000000001,-0.30000000000000004 -0.7000000000000001,-0.6000000000000001 l0.30000000000000004,-0.1 c0,0.2 0.2,0.4 0.4,0.4 c0.2,0 0.4,-0.2 0.4,-0.4 c0,-0.2 -0.2,-0.4 -0.4,-0.4 l-0.2,-0.1 c-0.30000000000000004,-0.1 -0.5,-0.30000000000000004 -0.5,-0.6000000000000001 c0,-0.4 0.30000000000000004,-0.6000000000000001 0.7000000000000001,-0.6000000000000001 c0.30000000000000004,0 0.5,0.1 0.6000000000000001,0.30000000000000004 L69.8,21.1 z" id="svg_26"/>
</g><polygon class="st1" points="38.400001525878906,25.900001525878906 38.400001525878906,25.900001525878906 38.099998474121094,27.400001525878906 37.79999923706055,27.400001525878906 38.29999923706055,25 39,26.800003051757812 39.79999923706055,25 40.29999923706055,27.400001525878906 40,27.400001525878906 39.70000076293945,25.900001525878906 39.70000076293945,25.900001525878906 39,27.5 " id="svg_27"/><path class="st1" d="M44.1,25.700000000000003 l-0.4,0.9 h0.8 L44.1,25.700000000000003 zM43.5,26.799999999999997 l-0.30000000000000004,0.6000000000000001 H43 l1.1,-2.4 l1.1,2.4 h-0.30000000000000004 l-0.30000000000000004,-0.6000000000000001 H43.5 z" id="svg_28"/><polygon class="st1" points="48,25 49.69999694824219,26.800003051757812 49.69999694824219,25.099998474121094 50,25.099998474121094 50,27.5 48.30000305175781,25.699996948242188 48.30000305175781,27.400001525878906 48,27.400001525878906 " id="svg_29"/><path class="st1" d="M53.900000000000006,25.700000000000003 l-0.4,0.9 h0.8 L53.900000000000006,25.700000000000003 zM53.400000000000006,26.799999999999997 l-0.30000000000000004,0.6000000000000001 h-0.30000000000000004 l1.1,-2.4 l1.1,2.4 h-0.30000000000000004 l-0.30000000000000004,-0.6000000000000001 H53.400000000000006 z" id="svg_30"/><g id="svg_31" class="">
	<defs transform="translate(-16,-41) ">
		<rect id="SVGID_9_" x="16" y="41" width="82.69999694824219" height="32"/>
	</defs>
	<clipPath id="SVGID_10_" transform="translate(-16,-41) ">
		<use xlink:href="#SVGID_9_" style="overflow:visible;" id="svg_32"/>
	</clipPath>
	<path class="st5" d="M59.900000000000006,26.299999999999997 L59.900000000000006,26.299999999999997 c0,0.7000000000000001 -0.4,1.2 -1.1,1.2 c-0.6000000000000001,0 -1.2,-0.5 -1.2,-1.2 c0,-0.7000000000000001 0.5,-1.2 1.2,-1.2 c0.4,0 0.7000000000000001,0.2 0.9,0.4 l-0.2,0.2 c-0.2,-0.2 -0.4,-0.4 -0.7000000000000001,-0.4 c-0.5,0 -0.9,0.4 -0.9,0.9 c0,0.5 0.4,0.9 0.9,0.9 c0.4,0 0.7000000000000001,-0.30000000000000004 0.7000000000000001,-0.7000000000000001 H59 v-0.30000000000000004 H59.900000000000006 z" id="svg_33"/>
</g><polygon class="st1" points="62.80000305175781,25.099998474121094 64.0999984741211,25.099998474121094 64.0999984741211,25.400001525878906 63.099998474121094,25.400001525878906 63.099998474121094,26 64,26 64,26.300003051757812 63.099998474121094,26.300003051757812 63.099998474121094,27.099998474121094 64.0999984741211,27.099998474121094 64.0999984741211,27.400001525878906 62.80000305175781,27.400001525878906 " id="svg_34"/><polygon class="st1" points="67.5,25.900001525878906 67.5,25.900001525878906 67.19999694824219,27.400001525878906 66.9000015258789,27.400001525878906 67.4000015258789,25 68.0999984741211,26.800003051757812 68.9000015258789,25 69.4000015258789,27.400001525878906 69.0999984741211,27.400001525878906 68.80000305175781,25.900001525878906 68.80000305175781,25.900001525878906 68.0999984741211,27.5 " id="svg_35"/><polygon class="st1" points="72.30000305175781,25.099998474121094 73.5,25.099998474121094 73.5,25.400001525878906 72.5999984741211,25.400001525878906 72.5999984741211,26 73.5,26 73.5,26.300003051757812 72.5999984741211,26.300003051757812 72.5999984741211,27.099998474121094 73.5,27.099998474121094 73.5,27.400001525878906 72.30000305175781,27.400001525878906 " id="svg_36"/><polygon class="st1" points="76.5,25 78.19999694824219,26.800003051757812 78.19999694824219,25.099998474121094 78.5,25.099998474121094 78.5,27.5 76.80000305175781,25.699996948242188 76.80000305175781,27.400001525878906 76.5,27.400001525878906 " id="svg_37"/><polygon class="st1" points="81.4000015258789,25.099998474121094 81.4000015258789,25.400001525878906 81.9000015258789,25.400001525878906 81.9000015258789,27.400001525878906 82.19999694824219,27.400001525878906 82.19999694824219,25.400001525878906 82.69999694824219,25.400001525878906 82.69999694824219,25.099998474121094 " id="svg_38"/><g id="svg_39" class="">
	<defs transform="translate(-16,-41) ">
		<rect id="SVGID_11_" x="16" y="41" width="82.69999694824219" height="32"/>
	</defs>
	<clipPath id="SVGID_12_" transform="translate(-16,-41) ">
		<use xlink:href="#SVGID_11_" style="overflow:visible;" id="svg_40"/>
	</clipPath>
	<path class="st6" d="M40,30.799999999999997 L40,30.799999999999997 c0,0.7000000000000001 -0.4,1.2 -1.1,1.2 c-0.6000000000000001,0 -1.2,-0.6000000000000001 -1.2,-1.2 c0,-0.7000000000000001 0.5,-1.2 1.2,-1.2 c0.4,0 0.7000000000000001,0.2 0.9,0.4 l-0.2,0.2 c-0.2,-0.2 -0.4,-0.4 -0.7000000000000001,-0.4 c-0.5,0 -0.9,0.4 -0.9,0.9 c0,0.5 0.4,0.9 0.9,0.9 c0.4,0 0.7000000000000001,-0.30000000000000004 0.7000000000000001,-0.7000000000000001 h-0.6000000000000001 v-0.30000000000000004 H40 z" id="svg_41"/>
	<path class="st6" d="M43.3,30.700000000000003 L43.3,30.700000000000003 c0.4,0 0.7000000000000001,-0.1 0.7000000000000001,-0.4 c0,-0.4 -0.30000000000000004,-0.4 -0.6000000000000001,-0.4 h-0.1 V30.700000000000003 zM44.4,31.900000000000006 h-0.30000000000000004 l-0.7000000000000001,-1 h-0.1 v1 H43 v-2.3 h0.30000000000000004 c0.2,0 0.4,0 0.6000000000000001,0.1 c0.2,0.1 0.30000000000000004,0.30000000000000004 0.30000000000000004,0.5 c0,0.30000000000000004 -0.2,0.6000000000000001 -0.5,0.6000000000000001 L44.4,31.900000000000006 z" id="svg_42"/>
	<path class="st6" d="M49.2,30.799999999999997 c0,-0.5 -0.4,-0.9 -0.9,-0.9 c-0.5,0 -0.9,0.4 -0.9,0.9 c0,0.5 0.4,0.9 0.9,0.9 C48.8,31.700000000000003 49.2,31.299999999999997 49.2,30.799999999999997 M49.5,30.799999999999997 c0,0.7000000000000001 -0.5,1.2 -1.2,1.2 c-0.7000000000000001,0 -1.2,-0.5 -1.2,-1.2 c0,-0.7000000000000001 0.5,-1.2 1.2,-1.2 C49,29.599999999999994 49.5,30.099999999999994 49.5,30.799999999999997 " id="svg_43"/>
	<path class="st6" d="M52.7,29.599999999999994 V31 c0,0.4 0.1,0.7000000000000001 0.5,0.7000000000000001 c0.4,0 0.5,-0.30000000000000004 0.5,-0.7000000000000001 v-1.3 h0.30000000000000004 v1.4 c0,0.5 -0.30000000000000004,0.9 -0.8,0.9 c-0.5,0 -0.8,-0.4 -0.8,-0.9 v-1.4 H52.7 z" id="svg_44"/>
	<path class="st6" d="M57.400000000000006,30.700000000000003 L57.400000000000006,30.700000000000003 c0.4,0 0.7000000000000001,-0.1 0.7000000000000001,-0.4 c0,-0.4 -0.30000000000000004,-0.4 -0.6000000000000001,-0.4 h-0.1 V30.700000000000003 zM57.400000000000006,31.900000000000006 h-0.30000000000000004 v-2.3 h0.30000000000000004 c0.7000000000000001,0 0.9,0.2 0.9,0.7000000000000001 c0,0.5 -0.4,0.7000000000000001 -0.8,0.7000000000000001 h-0.2 V31.900000000000006 z" id="svg_45"/>
	<path class="st6" d="M82.7,8.5 v0.7000000000000001 c0,4.5 -3.2,8 -7.8,8 c-4.6,0 -8.3,-4 -8.3,-8.6 c0,-4.7 3.8,-8.6 8.6,-8.6 c2.6,0 5.1,1.2 6.7,3.2 l-1.4,1.4 c-1.2,-1.6 -3.2,-2.7 -5.2,-2.7 c-3.7,0 -6.6,3 -6.6,6.7 c0,3.5 2.8,6.7 6.4,6.7 c2.6,0 5.3,-2.2 5.4,-4.9 h-4.3 v-1.9 H82.7 z" id="svg_46"/>
</g><polygon class="st1" points="37.79999923706055,0.20000076293945312 37.79999923706055,2.200000762939453 37.79999923706055,7.599998474121094 37.79999923706055,9.5 37.79999923706055,15 37.79999923706055,16.900001525878906 39.70000076293945,16.900001525878906 46,16.900001525878906 46.400001525878906,15 39.70000076293945,15 39.70000076293945,9.5 47.5,9.5 47.900001525878906,7.599998474121094 39.70000076293945,7.599998474121094 39.70000076293945,2.200000762939453 48.900001525878906,2.200000762939453 49.30000305175781,0.20000076293945312 39.70000076293945,0.20000076293945312 " id="svg_47"/><polygon class="st1" points="52.099998474121094,5.900001525878906 52.19999694824219,5.900001525878906 57,16.900001525878906 57.30000305175781,16.900001525878906 62.19999694824219,5.900001525878906 62.19999694824219,5.900001525878906 64.19999694824219,16.900001525878906 66.30000305175781,16.900001525878906 63,0.20000076293945312 62.599998474121094,0.20000076293945312 57.19999694824219,12.700000762939453 51.69999694824219,0.20000076293945312 51.30000305175781,0.20000076293945312 48,16.900001525878906 50.19999694824219,16.900001525878906 " id="svg_48"/></g></svg>