<svg id="Layer_1" preserveAspectRatio="none" data-name="Layer 1" xmlns="http://www.w3.org/2000/svg" xmlns:xlink="http://www.w3.org/1999/xlink" viewBox="0 0 294.98 409"><defs><style>.cls-1,.cls-3{fill:none;}.cls-2{clip-path:url(#clip-path);}.cls-3{stroke:#bc9e74;}.cls-4{clip-path:url(#clip-path-2);}.cls-5{fill:url(#linear-gradient);}.cls-6{clip-path:url(#clip-path-3);}.cls-7{fill:url(#linear-gradient-2);}</style><clipPath id="clip-path"><rect class="cls-1" y="11.74" width="294.98" height="385.43"/></clipPath><clipPath id="clip-path-2"><path class="cls-1" d="M0,204.5a17.3,17.3,0,0,1,17.19,17.22h0A17.32,17.32,0,0,1,34.4,204.5a17.3,17.3,0,0,1-17.19-17.23h0A17.3,17.3,0,0,1,0,204.5"/></clipPath><linearGradient id="linear-gradient" x1="-345.63" y1="-160.09" x2="-344.63" y2="-160.09" gradientTransform="translate(11889.8 5711.54) scale(34.4)" gradientUnits="userSpaceOnUse"><stop offset="0" stop-color="#5d3a1c"/><stop offset="0.01" stop-color="#5d3a1c"/><stop offset="0.17" stop-color="#82522a"/><stop offset="0.25" stop-color="#925c30"/><stop offset="0.5" stop-color="#dca06e"/><stop offset="0.75" stop-color="#925c30"/><stop offset="1" stop-color="#5d3a1c"/></linearGradient><clipPath id="clip-path-3"><path class="cls-1" d="M260.58,204.5a17.3,17.3,0,0,1,17.19,17.22h0A17.31,17.31,0,0,1,295,204.5a17.3,17.3,0,0,1-17.19-17.23h0a17.3,17.3,0,0,1-17.23,17.23"/></clipPath><linearGradient id="linear-gradient-2" x1="-345.63" y1="-160.09" x2="-344.63" y2="-160.09" gradientTransform="translate(12150.38 5711.54) scale(34.4)" xlink:href="#linear-gradient"/></defs><title>frame-xs</title><g class="cls-2"><path class="cls-3" d="M28.89,12.21s0,11.31-12,11.31V385.38s12,0,12,11.31H265.82s0-11.31,12-11.31V23.52s-12,0-12-11.31Z"/></g><g class="cls-4"><rect class="cls-5" y="187.27" width="34.4" height="34.45"/></g><g class="cls-6"><rect class="cls-7" x="260.58" y="187.27" width="34.4" height="34.45"/></g></svg>