<?xml version="1.0" encoding="utf-8"?>
<!-- Generator: Adobe Illustrator 21.1.0, SVG Export Plug-In . SVG Version: 6.00 Build 0)  -->
<svg version="1.1" id="Layer_1" xmlns="http://www.w3.org/2000/svg" xmlns:xlink="http://www.w3.org/1999/xlink" x="0px" y="0px" preserveAspectRatio="none"
	 viewBox="0 0 874.4 385" style="enable-background:new 0 0 874.4 385;" xml:space="preserve">
<style type="text/css">
	.st0{clip-path:url(#SVGID_2_);fill:none;stroke:#BC9E74;}
	.st1{clip-path:url(#SVGID_4_);fill:url(#SVGID_5_);}
	.st2{clip-path:url(#SVGID_7_);fill:url(#SVGID_8_);}
</style>
<title>Artboard 1</title>
<g>
	<defs>
		<rect id="SVGID_1_" width="874.4" height="385"/>
	</defs>
	<clipPath id="SVGID_2_">
		<use xlink:href="#SVGID_1_"  style="overflow:visible;"/>
	</clipPath>
	<path class="st0" d="M29.7,0.5c0,0,0,12-12,12v360c0,0,12,0,12,12h815c0,0,0-12,12-12v-360c0,0-12,0-12-12H29.7z"/>
</g>
<g>
	<defs>
		<path id="SVGID_3_" d="M840,188.9c9.3,0.1,16.9,7.6,16.9,17c0,0,0,0,0,0c0.1-9.3,7.6-16.9,16.9-17c-9.3-0.1-16.9-7.6-16.9-17
			c0,0,0,0,0,0C856.9,181.2,849.3,188.8,840,188.9"/>
	</defs>
	<clipPath id="SVGID_4_">
		<use xlink:href="#SVGID_3_"  style="overflow:visible;"/>
	</clipPath>
	
		<linearGradient id="SVGID_5_" gradientUnits="userSpaceOnUse" x1="-107.7735" y1="688.851" x2="-106.7888" y2="688.851" gradientTransform="matrix(34.4021 0 0 -34.4021 4547.6299 23886.7461)">
		<stop  offset="0" style="stop-color:#5D3A1C"/>
		<stop  offset="1.054950e-02" style="stop-color:#5D3A1C"/>
		<stop  offset="0.1669" style="stop-color:#82522A"/>
		<stop  offset="0.2549" style="stop-color:#925C30"/>
		<stop  offset="0.4985" style="stop-color:#DCA06E"/>
		<stop  offset="0.7474" style="stop-color:#925C30"/>
		<stop  offset="1" style="stop-color:#5D3A1C"/>
	</linearGradient>
	<rect x="840" y="171.9" class="st1" width="33.9" height="33.9"/>
</g>
<g>
	<defs>
		<path id="SVGID_6_" d="M1,189.1c9.5,0.1,17.1,7.7,17.2,17.2c0,0,0,0,0,0c0.1-9.5,7.7-17.2,17.2-17.2c-9.5-0.1-17.1-7.7-17.2-17.2
			c0,0,0,0,0,0C18.2,181.4,10.5,189.1,1,189.1"/>
	</defs>
	<clipPath id="SVGID_7_">
		<use xlink:href="#SVGID_6_"  style="overflow:visible;"/>
	</clipPath>
	
		<linearGradient id="SVGID_8_" gradientUnits="userSpaceOnUse" x1="-107.7444" y1="689.0176" x2="-106.7444" y2="689.0176" gradientTransform="matrix(34.4021 0 0 -34.4021 3707.6301 23892.7461)">
		<stop  offset="0" style="stop-color:#5D3A1C"/>
		<stop  offset="1.054950e-02" style="stop-color:#5D3A1C"/>
		<stop  offset="0.1669" style="stop-color:#82522A"/>
		<stop  offset="0.2549" style="stop-color:#925C30"/>
		<stop  offset="0.4985" style="stop-color:#DCA06E"/>
		<stop  offset="0.7474" style="stop-color:#925C30"/>
		<stop  offset="1" style="stop-color:#5D3A1C"/>
	</linearGradient>
	<rect x="1" y="171.9" class="st2" width="34.4" height="34.5"/>
</g>
</svg>
