<svg id="Layer_1" data-name="Layer 1" xmlns="http://www.w3.org/2000/svg" xmlns:xlink="http://www.w3.org/1999/xlink" viewBox="0 0 129.2 49.6"><defs><style>.cls-1{fill:#fff;}.cls-2{fill:url(#linear-gradient);}.cls-3{fill:url(#linear-gradient-2);}.cls-4{fill:url(#linear-gradient-3);}.cls-5{fill:url(#linear-gradient-4);}.cls-6{fill:url(#linear-gradient-5);}.cls-7{fill:url(#linear-gradient-6);}.cls-8{fill:url(#linear-gradient-7);}.cls-9{fill:url(#linear-gradient-8);}</style><linearGradient id="linear-gradient" x1="1.78" y1="37.73" x2="25.46" y2="61.41" gradientTransform="matrix(1, 0, 0, -1, 0, 88.5)" gradientUnits="userSpaceOnUse"><stop offset="0.01" stop-color="#929497"/><stop offset="0.24" stop-color="#c4c5c7"/><stop offset="0.46" stop-color="#efefef"/><stop offset="0.57" stop-color="#fff"/><stop offset="1" stop-color="#e2e3e4"/></linearGradient><linearGradient id="linear-gradient-2" x1="28.82" y1="34.07" x2="51.3" y2="56.55" gradientTransform="matrix(1, 0, 0, -1, -4, 70)" xlink:href="#linear-gradient"/><linearGradient id="linear-gradient-3" x1="83.3" y1="35.2" x2="112.45" y2="64.35" xlink:href="#linear-gradient"/><linearGradient id="linear-gradient-4" x1="108.3" y1="35.2" x2="137.45" y2="64.35" xlink:href="#linear-gradient"/><linearGradient id="linear-gradient-5" x1="57.97" y1="41.02" x2="76.21" y2="59.26" gradientTransform="matrix(1, 0, 0, -1, -4, 70)" xlink:href="#linear-gradient"/><linearGradient id="linear-gradient-6" x1="74.24" y1="64.4" x2="82.68" y2="64.4" gradientTransform="matrix(1, 0, 0, -1, 0, 88.5)" gradientUnits="userSpaceOnUse"><stop offset="0" stop-color="#5d3a1d"/><stop offset="0.04" stop-color="#653f20"/><stop offset="0.26" stop-color="#8f5a30"/><stop offset="0.33" stop-color="#a56e43"/><stop offset="0.5" stop-color="#da9f6f"/><stop offset="0.54" stop-color="#ce9465"/><stop offset="0.7" stop-color="#a16a3f"/><stop offset="0.78" stop-color="#8f5a30"/><stop offset="0.86" stop-color="#754a26"/><stop offset="0.94" stop-color="#633e1f"/><stop offset="1" stop-color="#5d3a1d"/></linearGradient><linearGradient id="linear-gradient-7" x1="42.23" y1="64.4" x2="50.68" y2="64.4" xlink:href="#linear-gradient-6"/><linearGradient id="linear-gradient-8" x1="7.33" y1="38" x2="15.77" y2="38" xlink:href="#linear-gradient-6"/></defs><title>skyxx_logo</title><g id="_Group_" data-name="&lt;Group&gt;"><path id="_Compound_Path_" data-name="&lt;Compound Path&gt;" class="cls-1" d="M38,65.9v.3a1.9,1.9,0,0,1-.5,1.3,2.17,2.17,0,0,1-1.4.5,2,2,0,0,1-1.5-.6A1.68,1.68,0,0,1,34,66a1.82,1.82,0,0,1,.6-1.4A2,2,0,0,1,36,64a3,3,0,0,1,1,.2,2.34,2.34,0,0,1,.7.7l-.6.4a.78.78,0,0,0-.4-.4,1.27,1.27,0,0,0-.6-.1,1,1,0,0,0-.9.4,1.27,1.27,0,0,0-.4.9,1,1,0,0,0,.4.9,1.53,1.53,0,0,0,1,.4,1.45,1.45,0,0,0,.7-.2,1,1,0,0,0,.4-.5H36V66h2Zm4.6,2-.2-.7H40.9l-.2.7h-.8l1.3-3.8h.9l1.3,3.8Zm-1.5-1.3h1.1L41.6,65Zm6.5,1.3-.8-1.3h-.6v1.3h-.8V64.1H47a1,1,0,0,1,.9.4,1.49,1.49,0,0,1,.4.9,1.85,1.85,0,0,1-.2.7,1.21,1.21,0,0,1-.5.5l.8,1.4h-.8Zm-1.4-3.1V66h1c.1,0,.1-.1.2-.1s.1-.1.1-.2v-.4c0-.1-.1-.1-.1-.2s-.1-.1-.2-.1h-1Zm5.8-.7a1.61,1.61,0,0,1,1.3.6,1.74,1.74,0,0,1,.5,1.4,2.39,2.39,0,0,1-.5,1.4,1.76,1.76,0,0,1-1.3.6H50.5V64.3H52Zm0,3.1a1.14,1.14,0,0,0,.8-.3,1.22,1.22,0,0,0,.3-.9,1.4,1.4,0,0,0-.3-.9,1.14,1.14,0,0,0-.8-.3h-.8v2.4Zm4.8,0h1.6v.7H56V64.1h2.3v.7H56.7v.8h1.5v.7H56.7v.9Zm6-3.1h.8v3.8H63l-1.6-2.3v2.3h-.8V64.1h.6l1.6,2.3Zm9.3,3.6-.6.3-.4-.4a1.82,1.82,0,0,1-2,0,1.23,1.23,0,0,1-.4-.8,1.42,1.42,0,0,1,.2-.6c.1-.2.3-.3.5-.5a1.42,1.42,0,0,1-.2-.6,1.14,1.14,0,0,1,.3-.8,1.22,1.22,0,0,1,.9-.3,1.45,1.45,0,0,1,.7.2,1,1,0,0,1,.5.6l-.6.4a.63.63,0,0,0-.6-.5.37.37,0,0,0-.3.1.76.76,0,0,0-.1.4.37.37,0,0,0,.1.3c0,.1.1.2.2.3l.8.9c.1-.2.1-.4.2-.6l.6.4a6.89,6.89,0,0,1-.3.8Zm-1.9-.4a.75.75,0,0,0,.5-.1l-.8-.9h0a.55.55,0,0,0-.3.5.52.52,0,0,0,.2.4C69.8,67.3,70,67.3,70.2,67.3Zm7.8-.1h1.5v.7H77.3V64.1H78Zm6.7.2a2,2,0,0,1-1.4.6,1.82,1.82,0,0,1-1.4-.6,2,2,0,0,1-.6-1.4,1.82,1.82,0,0,1,.6-1.4,2,2,0,0,1,1.4-.6,1.82,1.82,0,0,1,1.4.6,2,2,0,0,1,.6,1.4A1.68,1.68,0,0,1,84.7,67.4Zm-2.3-.5a1.27,1.27,0,0,0,.9.4,1.09,1.09,0,0,0,.9-.4,1.27,1.27,0,0,0,.4-.9,1,1,0,0,0-.4-.9,1.27,1.27,0,0,0-.9-.4,1.09,1.09,0,0,0-.9.4,1.27,1.27,0,0,0-.4.9A1.88,1.88,0,0,0,82.4,66.9ZM88.9,68a1.5,1.5,0,0,1-1.1-.4,1.16,1.16,0,0,1-.4-1V64h.8v2.5a.7.7,0,1,0,1.4,0V64h.8v2.6a1.28,1.28,0,0,1-.4,1A1.37,1.37,0,0,1,88.9,68Zm6-3.9h.8v3.8h-.6l-1.6-2.3v2.3h-.8V64.1h.6l1.6,2.3Zm6.9,1.8v.3a1.9,1.9,0,0,1-.5,1.3,2.17,2.17,0,0,1-1.4.5,2,2,0,0,1-1.5-.6,2,2,0,0,1-.6-1.4,1.82,1.82,0,0,1,.6-1.4,2,2,0,0,1,1.4-.6,3,3,0,0,1,1,.2,2.34,2.34,0,0,1,.7.7l-.6.4a.78.78,0,0,0-.4-.4,1.27,1.27,0,0,0-.6-.1,1,1,0,0,0-.9.4,1.27,1.27,0,0,0-.4.9,1,1,0,0,0,.4.9,1.53,1.53,0,0,0,1,.4,1.45,1.45,0,0,0,.7-.2,1,1,0,0,0,.4-.5H99.9V66h1.9Zm2.9,1.3h1.6v.7H104V64.1h2.3v.7h-1.6v.8h1.5v.7h-1.5Z" transform="translate(-4 -18.5)"/><path id="_Path_" data-name="&lt;Path&gt;" class="cls-2" d="M18.2,35c3,2.4,7,5.3,7,11.7,0,6.2-5.5,11.4-11.8,11.4S4,52.5,4,52.5h.6s3.2,5.1,8.8,5.1c3.5,0,6.9-3.6,6.9-8,0-6.1-4.1-9.1-6.5-10.9-5.9-4.3-8.5-7.4-8.5-11.5a8.41,8.41,0,0,1,8.5-8.7c5.4-.1,7.6,5.5,7.6,5.5h-.7s-2.1-5-6.8-5A4.74,4.74,0,0,0,9,24C8.9,27,11.5,29.7,18.2,35Z" transform="translate(-4 -18.5)"/><polygon id="_Path_2" data-name="&lt;Path&gt;" class="cls-3" points="38.7 9.8 38.4 9.2 33.9 13.7 33.9 0 28.6 0 28.6 39.7 33.9 39.7 33.9 14.6 34.6 13.8 47.6 39.7 53.2 39.7 38.7 9.8"/><path id="_Path_3" data-name="&lt;Path&gt;" class="cls-4" d="M102.7,58.2,96.2,40.4,88.9,58.2h-.7l7.7-18.7L88.2,18.6h5.5l5.9,16.2,6.6-16.2h.7l-7,17.1,8.3,22.5Z" transform="translate(-4 -18.5)"/><path id="_Path_4" data-name="&lt;Path&gt;" class="cls-5" d="M127.7,58.2l-6.5-17.8-7.3,17.8h-.7l7.7-18.7-7.7-20.9h5.5l5.9,16.2,6.6-16.2h.7l-7,17.1,8.3,22.5Z" transform="translate(-4 -18.5)"/><polygon id="_Path_5" data-name="&lt;Path&gt;" class="cls-6" points="69.6 13.8 61.5 0 56.2 0 64.6 14.4 64.6 39.7 70 39.7 70 14.5 69.6 13.8"/><path id="_Path_6" data-name="&lt;Path&gt;" class="cls-7" d="M82.7,24.1a4.23,4.23,0,0,1-4.2-4.2h0a4.23,4.23,0,0,1-4.2,4.2,4.23,4.23,0,0,1,4.2,4.2h0A4.29,4.29,0,0,1,82.7,24.1Z" transform="translate(-4 -18.5)"/><path id="_Path_7" data-name="&lt;Path&gt;" class="cls-8" d="M50.7,24.1a4.23,4.23,0,0,1-4.2-4.2h0a4.23,4.23,0,0,1-4.2,4.2,4.23,4.23,0,0,1,4.2,4.2h0A4.22,4.22,0,0,1,50.7,24.1Z" transform="translate(-4 -18.5)"/><path id="_Path_8" data-name="&lt;Path&gt;" class="cls-9" d="M15.8,50.5a4.23,4.23,0,0,1-4.2-4.2h0a4.23,4.23,0,0,1-4.2,4.2,4.23,4.23,0,0,1,4.2,4.2h0A4.16,4.16,0,0,1,15.8,50.5Z" transform="translate(-4 -18.5)"/></g></svg>