<svg id="Layer_1" preserveAspectRatio="none" data-name="Layer 1" xmlns="http://www.w3.org/2000/svg" xmlns:xlink="http://www.w3.org/1999/xlink" viewBox="0 0 625.82 409"><defs><style>.cls-1,.cls-3{fill:none;}.cls-2{clip-path:url(#clip-path);}.cls-3{stroke:#bc9e74;}.cls-4{clip-path:url(#clip-path-2);}.cls-5{fill:url(#linear-gradient);}.cls-6{clip-path:url(#clip-path-3);}.cls-7{fill:url(#linear-gradient-2);}</style><clipPath id="clip-path"><rect class="cls-1" x="-2.53" y="12.72" width="628.35" height="382.81"/></clipPath><clipPath id="clip-path-2"><path class="cls-1" d="M.5,204.5c8.15.06,14.73,7.74,14.77,17.22h0c0-9.48,6.64-17.16,14.79-17.22-8.15-.06-14.74-7.75-14.77-17.23h0c0,9.49-6.63,17.18-14.79,17.23"/></clipPath><linearGradient id="linear-gradient" x1="-189.24" y1="-160.09" x2="-188.38" y2="-160.09" gradientTransform="translate(6510.4 5711.54) scale(34.4)" gradientUnits="userSpaceOnUse"><stop offset="0" stop-color="#5d3a1c"/><stop offset="0.01" stop-color="#5d3a1c"/><stop offset="0.17" stop-color="#82522a"/><stop offset="0.25" stop-color="#925c30"/><stop offset="0.5" stop-color="#dca06e"/><stop offset="0.75" stop-color="#925c30"/><stop offset="1" stop-color="#5d3a1c"/></linearGradient><clipPath id="clip-path-3"><path class="cls-1" d="M593.92,204.5c8.07.06,14.6,7.74,14.64,17.22h0c0-9.49,6.58-17.17,14.66-17.22-8.08-.06-14.61-7.75-14.64-17.23h0c0,9.5-6.58,17.19-14.66,17.23"/></clipPath><linearGradient id="linear-gradient-2" x1="-189.18" y1="-160.09" x2="-188.33" y2="-160.09" gradientTransform="translate(7101.81 5711.54) scale(34.4)" xlink:href="#linear-gradient"/></defs><title>frame</title><g class="cls-2"><path class="cls-3" d="M27.29,13.19s0,11.23-12,11.23V383.83s12,0,12,11.23H596.4s0-11.23,12-11.23V24.42s-12,0-12-11.23Z"/></g><g class="cls-4"><rect class="cls-5" x="0.5" y="187.27" width="29.56" height="34.45"/></g><g class="cls-6"><rect class="cls-7" x="593.92" y="187.27" width="29.29" height="34.45"/></g></svg>